<svg xmlns="http://www.w3.org/2000/svg" data-name="Layer 1" viewBox="0 0 64 64"><path fill="#42eaf5" d="M58.00373,35.899a7.97505,7.97505,0,0,1-2.33767,5.65905L37.68388,59.57586a7.99914,7.99914,0,0,1-11.31347.01119L8.35261,41.60487A7.99983,7.99983,0,1,1,19.65488,30.28021l12.35547,12.331,12.331-12.35547A8,8,0,0,1,58.00373,35.899Z"/><path fill="#42eaf5" d="M39.97813,9.91682l.03265,33a8,8,0,1,1-16,.01583l-.03266-33a8,8,0,0,1,16-.01584Z"/><path fill="#007da1" d="M59.99768,36.00967a9.93268,9.93268,0,0,1-2.9292,7.0708l-18,18a10.04635,10.04635,0,0,1-14.14209,0l-17.99951-18a10,10,0,0,1,7.0708-17.0708,10.52566,10.52566,0,0,1,8,3.85791V10.00967a10,10,0,0,1,20,0V29.86758c3.65217-4.5807,10.9499-5.243,15.07129-.92871A9.93424,9.93424,0,0,1,59.99768,36.00967Zm-51.99707,0A5.98253,5.98253,0,0,0,9.755,40.25235l18,18a6.02788,6.02788,0,0,0,8.48487,0l18.00049-18A5.99988,5.99988,0,0,0,45.75549,31.767l-4.34375,4.34327a2.013,2.013,0,0,1-3.41406-1.41407V10.00967a6,6,0,0,0-12,0V34.69619a2.013,2.013,0,0,1-3.41406,1.41407c-2.17381-1.91062-5.25086-6.42981-8.58594-6.10059A6.0419,6.0419,0,0,0,8.00061,36.00967Z"/></svg>